<?xml version="1.0" standalone="no"?>
<!DOCTYPE svg PUBLIC "-//W3C//DTD SVG 20010904//EN"
 "http://www.w3.org/TR/2001/REC-SVG-20010904/DTD/svg10.dtd">
<svg version="1.0" xmlns="http://www.w3.org/2000/svg"
 width="512.000000pt" height="512.000000pt" viewBox="0 0 512.000000 512.000000"
 preserveAspectRatio="xMidYMid meet">

<g transform="translate(0.000000,512.000000) scale(0.100000,-0.100000)"
fill="#000000" stroke="none">
<path d="M2395 5114 c-16 -2 -66 -9 -110 -15 -521 -69 -1032 -432 -1264 -898
-119 -239 -192 -590 -162 -774 51 -307 367 -469 648 -332 125 62 211 185 233
336 38 260 52 310 121 426 189 316 686 456 1044 294 277 -126 458 -385 459
-656 1 -114 -26 -196 -94 -294 -66 -93 -140 -150 -415 -321 -328 -204 -399
-254 -496 -350 -133 -132 -200 -251 -233 -412 -53 -258 37 -471 241 -569 59
-29 81 -34 165 -37 78 -3 110 0 166 17 130 39 240 146 277 271 39 129 38 127
300 285 320 193 435 276 578 421 393 401 512 929 330 1474 -194 581 -695 999
-1333 1111 -109 19 -384 33 -455 23z"/>
<path d="M2426 1134 c-160 -39 -312 -161 -381 -305 -37 -78 -65 -187 -65 -254
0 -138 68 -294 175 -401 193 -193 482 -228 704 -84 164 106 259 268 269 455 8
171 -46 312 -163 430 -145 147 -346 206 -539 159z"/>
</g>
</svg>
